<mxfile host="Electron" modified="2023-11-10T11:40:24.502Z" agent="Mozilla/5.0 (Windows NT 10.0; Win64; x64) AppleWebKit/537.36 (KHTML, like Gecko) draw.io/21.7.5 Chrome/114.0.5735.289 Electron/25.8.1 Safari/537.36" etag="MCblrkNjH_L6gPq4y1l2" version="21.7.5" type="device">
  <diagram name="PÃ¡gina-1" id="1LPX5ut7-BZLvHtfw27k">
    <mxGraphModel dx="2853" dy="516" grid="1" gridSize="10" guides="1" tooltips="1" connect="1" arrows="1" fold="1" page="1" pageScale="1" pageWidth="583" pageHeight="827" math="0" shadow="0">
      <root>
        <mxCell id="0" />
        <mxCell id="1" parent="0" />
        <mxCell id="Og9x-l5hCMV8rt3OVe_0-1" value="Estadisticas&amp;nbsp; Futbol&amp;nbsp; &amp;nbsp;2023" style="rounded=0;whiteSpace=wrap;html=1;" parent="1" vertex="1">
          <mxGeometry x="-230" y="20" width="300" height="60" as="geometry" />
        </mxCell>
        <mxCell id="Og9x-l5hCMV8rt3OVe_0-30" value="" style="whiteSpace=wrap;html=1;aspect=fixed;" parent="1" vertex="1">
          <mxGeometry x="940" y="130" width="80" height="80" as="geometry" />
        </mxCell>
        <mxCell id="Og9x-l5hCMV8rt3OVe_0-31" value="Datos Estadios" style="text;html=1;strokeColor=none;fillColor=none;align=center;verticalAlign=middle;whiteSpace=wrap;rounded=0;" parent="1" vertex="1">
          <mxGeometry x="950" y="160" width="60" height="30" as="geometry" />
        </mxCell>
        <mxCell id="Og9x-l5hCMV8rt3OVe_0-61" value="Estadisticas Jugadores" style="rounded=0;whiteSpace=wrap;html=1;" parent="1" vertex="1">
          <mxGeometry x="755" y="140" width="120" height="60" as="geometry" />
        </mxCell>
        <mxCell id="Og9x-l5hCMV8rt3OVe_0-63" value="Datos Jugadores" style="rounded=0;whiteSpace=wrap;html=1;" parent="1" vertex="1">
          <mxGeometry x="180" y="140" width="120" height="60" as="geometry" />
        </mxCell>
        <mxCell id="Og9x-l5hCMV8rt3OVe_0-88" value="Id_equipo" style="ellipse;whiteSpace=wrap;html=1;" parent="1" vertex="1">
          <mxGeometry x="20" y="220" width="100" height="30" as="geometry" />
        </mxCell>
        <mxCell id="Og9x-l5hCMV8rt3OVe_0-89" value="id_match" style="ellipse;whiteSpace=wrap;html=1;" parent="1" vertex="1">
          <mxGeometry x="590" y="220" width="100" height="30" as="geometry" />
        </mxCell>
        <mxCell id="Og9x-l5hCMV8rt3OVe_0-90" value="Id_jugador" style="ellipse;whiteSpace=wrap;html=1;" parent="1" vertex="1">
          <mxGeometry x="190" y="220" width="100" height="30" as="geometry" />
        </mxCell>
        <mxCell id="Og9x-l5hCMV8rt3OVe_0-91" value="id_stats_player" style="ellipse;whiteSpace=wrap;html=1;" parent="1" vertex="1">
          <mxGeometry x="765" y="220" width="100" height="30" as="geometry" />
        </mxCell>
        <mxCell id="Og9x-l5hCMV8rt3OVe_0-92" value="id_estadio" style="ellipse;whiteSpace=wrap;html=1;" parent="1" vertex="1">
          <mxGeometry x="930" y="230" width="100" height="30" as="geometry" />
        </mxCell>
        <mxCell id="Og9x-l5hCMV8rt3OVe_0-102" style="edgeStyle=orthogonalEdgeStyle;rounded=0;orthogonalLoop=1;jettySize=auto;html=1;exitX=0.5;exitY=1;exitDx=0;exitDy=0;entryX=0.221;entryY=1.002;entryDx=0;entryDy=0;entryPerimeter=0;" parent="1" edge="1">
          <mxGeometry relative="1" as="geometry">
            <mxPoint x="330" y="690" as="sourcePoint" />
            <mxPoint x="302.0999999999999" y="690.0600000000002" as="targetPoint" />
          </mxGeometry>
        </mxCell>
        <mxCell id="Og9x-l5hCMV8rt3OVe_0-103" style="edgeStyle=orthogonalEdgeStyle;rounded=0;orthogonalLoop=1;jettySize=auto;html=1;exitX=0.5;exitY=1;exitDx=0;exitDy=0;" parent="1" edge="1">
          <mxGeometry relative="1" as="geometry">
            <mxPoint x="895" y="650" as="sourcePoint" />
            <mxPoint x="895" y="650" as="targetPoint" />
          </mxGeometry>
        </mxCell>
        <mxCell id="Og9x-l5hCMV8rt3OVe_0-112" style="edgeStyle=orthogonalEdgeStyle;rounded=0;orthogonalLoop=1;jettySize=auto;html=1;exitX=0.5;exitY=1;exitDx=0;exitDy=0;" parent="1" edge="1">
          <mxGeometry relative="1" as="geometry">
            <mxPoint x="660" y="690" as="sourcePoint" />
            <mxPoint x="660" y="690" as="targetPoint" />
          </mxGeometry>
        </mxCell>
        <mxCell id="Og9x-l5hCMV8rt3OVe_0-113" style="edgeStyle=orthogonalEdgeStyle;rounded=0;orthogonalLoop=1;jettySize=auto;html=1;exitX=0.5;exitY=1;exitDx=0;exitDy=0;" parent="1" edge="1">
          <mxGeometry relative="1" as="geometry">
            <mxPoint x="1020" y="690" as="sourcePoint" />
            <mxPoint x="1020" y="690" as="targetPoint" />
          </mxGeometry>
        </mxCell>
        <mxCell id="Og9x-l5hCMV8rt3OVe_0-121" value="PK" style="text;html=1;strokeColor=none;fillColor=none;align=center;verticalAlign=middle;whiteSpace=wrap;rounded=0;" parent="1" vertex="1">
          <mxGeometry x="-1430" y="217" width="60" height="30" as="geometry" />
        </mxCell>
        <mxCell id="Og9x-l5hCMV8rt3OVe_0-122" value="PK" style="text;html=1;strokeColor=none;fillColor=none;align=center;verticalAlign=middle;whiteSpace=wrap;rounded=0;" parent="1" vertex="1">
          <mxGeometry x="-180" y="670" width="60" height="30" as="geometry" />
        </mxCell>
        <mxCell id="Og9x-l5hCMV8rt3OVe_0-124" value="Datos&amp;nbsp; Equipos" style="rounded=0;whiteSpace=wrap;html=1;" parent="1" vertex="1">
          <mxGeometry x="10" y="140" width="120" height="60" as="geometry" />
        </mxCell>
        <mxCell id="Og9x-l5hCMV8rt3OVe_0-127" value="Datos&amp;nbsp; Partidos" style="rounded=0;whiteSpace=wrap;html=1;" parent="1" vertex="1">
          <mxGeometry x="580" y="140" width="120" height="60" as="geometry" />
        </mxCell>
        <mxCell id="Og9x-l5hCMV8rt3OVe_0-129" value="team_name" style="text;whiteSpace=wrap;html=1;" parent="1" vertex="1">
          <mxGeometry x="30" y="250" width="100" height="40" as="geometry" />
        </mxCell>
        <mxCell id="Og9x-l5hCMV8rt3OVe_0-130" value="common_name" style="text;whiteSpace=wrap;html=1;" parent="1" vertex="1">
          <mxGeometry x="30" y="270" width="120" height="40" as="geometry" />
        </mxCell>
        <mxCell id="Og9x-l5hCMV8rt3OVe_0-131" value="ESTADISTICAS&amp;nbsp;&lt;br&gt;Equipos" style="rounded=0;whiteSpace=wrap;html=1;" parent="1" vertex="1">
          <mxGeometry x="350" y="140" width="120" height="60" as="geometry" />
        </mxCell>
        <mxCell id="Og9x-l5hCMV8rt3OVe_0-132" value="id_stats_equipo" style="ellipse;whiteSpace=wrap;html=1;" parent="1" vertex="1">
          <mxGeometry x="360" y="220" width="100" height="30" as="geometry" />
        </mxCell>
        <mxCell id="Og9x-l5hCMV8rt3OVe_0-133" value="country" style="text;whiteSpace=wrap;html=1;" parent="1" vertex="1">
          <mxGeometry x="30" y="290" width="70" height="40" as="geometry" />
        </mxCell>
        <mxCell id="Og9x-l5hCMV8rt3OVe_0-134" value="full_name" style="text;whiteSpace=wrap;html=1;" parent="1" vertex="1">
          <mxGeometry x="210" y="250" width="90" height="40" as="geometry" />
        </mxCell>
        <mxCell id="Og9x-l5hCMV8rt3OVe_0-135" value="age" style="text;whiteSpace=wrap;html=1;" parent="1" vertex="1">
          <mxGeometry x="210" y="270" width="50" height="40" as="geometry" />
        </mxCell>
        <mxCell id="Og9x-l5hCMV8rt3OVe_0-136" value="birthday_GMT" style="text;whiteSpace=wrap;html=1;" parent="1" vertex="1">
          <mxGeometry x="210" y="290" width="110" height="40" as="geometry" />
        </mxCell>
        <mxCell id="Og9x-l5hCMV8rt3OVe_0-137" value="position" style="text;whiteSpace=wrap;html=1;" parent="1" vertex="1">
          <mxGeometry x="210" y="310" width="70" height="40" as="geometry" />
        </mxCell>
        <mxCell id="Og9x-l5hCMV8rt3OVe_0-138" value="Current Club" style="text;whiteSpace=wrap;html=1;" parent="1" vertex="1">
          <mxGeometry x="210" y="330" width="100" height="40" as="geometry" />
        </mxCell>
        <mxCell id="Og9x-l5hCMV8rt3OVe_0-139" value="nationality" style="text;whiteSpace=wrap;html=1;" parent="1" vertex="1">
          <mxGeometry x="215" y="350" width="90" height="40" as="geometry" />
        </mxCell>
        <mxCell id="Og9x-l5hCMV8rt3OVe_0-150" style="edgeStyle=orthogonalEdgeStyle;rounded=0;orthogonalLoop=1;jettySize=auto;html=1;exitX=0.5;exitY=0;exitDx=0;exitDy=0;entryX=1;entryY=0;entryDx=0;entryDy=0;" parent="1" source="Og9x-l5hCMV8rt3OVe_0-89" target="Og9x-l5hCMV8rt3OVe_0-89" edge="1">
          <mxGeometry relative="1" as="geometry" />
        </mxCell>
        <mxCell id="Og9x-l5hCMV8rt3OVe_0-153" value="team_name" style="text;whiteSpace=wrap;html=1;" parent="1" vertex="1">
          <mxGeometry x="360" y="250" width="100" height="40" as="geometry" />
        </mxCell>
        <mxCell id="Og9x-l5hCMV8rt3OVe_0-154" value="country" style="text;whiteSpace=wrap;html=1;" parent="1" vertex="1">
          <mxGeometry x="360" y="270" width="70" height="40" as="geometry" />
        </mxCell>
        <mxCell id="Og9x-l5hCMV8rt3OVe_0-156" value="Promedio_min_goles_conv" style="text;html=1;strokeColor=none;fillColor=none;align=center;verticalAlign=middle;whiteSpace=wrap;rounded=0;" parent="1" vertex="1">
          <mxGeometry x="390" y="290" width="60" height="30" as="geometry" />
        </mxCell>
        <mxCell id="Og9x-l5hCMV8rt3OVe_0-157" value="Promedio_min_goles_recibidos" style="text;html=1;strokeColor=none;fillColor=none;align=center;verticalAlign=middle;whiteSpace=wrap;rounded=0;" parent="1" vertex="1">
          <mxGeometry x="400" y="310" width="60" height="30" as="geometry" />
        </mxCell>
        <mxCell id="Og9x-l5hCMV8rt3OVe_0-160" value="prom_x_min_remates" style="text;html=1;strokeColor=none;fillColor=none;align=center;verticalAlign=middle;whiteSpace=wrap;rounded=0;" parent="1" vertex="1">
          <mxGeometry x="380" y="330" width="60" height="30" as="geometry" />
        </mxCell>
        <mxCell id="Og9x-l5hCMV8rt3OVe_0-161" value="total_foules_x_equipo" style="text;html=1;strokeColor=none;fillColor=none;align=center;verticalAlign=middle;whiteSpace=wrap;rounded=0;" parent="1" vertex="1">
          <mxGeometry x="380" y="350" width="60" height="30" as="geometry" />
        </mxCell>
        <mxCell id="Og9x-l5hCMV8rt3OVe_0-162" value="total_offsides_x_equipo" style="text;html=1;strokeColor=none;fillColor=none;align=center;verticalAlign=middle;whiteSpace=wrap;rounded=0;" parent="1" vertex="1">
          <mxGeometry x="380" y="370" width="60" height="30" as="geometry" />
        </mxCell>
        <mxCell id="Og9x-l5hCMV8rt3OVe_0-163" style="edgeStyle=orthogonalEdgeStyle;rounded=0;orthogonalLoop=1;jettySize=auto;html=1;exitX=0;exitY=0.25;exitDx=0;exitDy=0;entryX=0;entryY=0;entryDx=0;entryDy=0;" parent="1" source="Og9x-l5hCMV8rt3OVe_0-154" target="Og9x-l5hCMV8rt3OVe_0-154" edge="1">
          <mxGeometry relative="1" as="geometry" />
        </mxCell>
        <mxCell id="Og9x-l5hCMV8rt3OVe_0-176" value="Contry name" style="text;html=1;strokeColor=none;fillColor=none;align=center;verticalAlign=middle;whiteSpace=wrap;rounded=0;" parent="1" vertex="1">
          <mxGeometry x="950" y="270" width="80" height="30" as="geometry" />
        </mxCell>
        <mxCell id="Og9x-l5hCMV8rt3OVe_0-179" value="stadium_name" style="text;whiteSpace=wrap;html=1;" parent="1" vertex="1">
          <mxGeometry x="955" y="300" width="110" height="40" as="geometry" />
        </mxCell>
        <mxCell id="2Otsvk1H-WhSrmR9li6b-1" value="timestamp&#x9; &#xa;date_GMT&#x9; &#xa;status&#x9; &#xa;country&#x9; &#xa;home_team_name&#x9; &#xa;away_team_name&#x9; &#xa;referee&#x9; &#xa;home_team_goal_count&#x9; &#xa;away_team_goal_count&#x9; &#xa;total_goal_count&#x9; &#xa;home_team_yellow_cards&#x9; &#xa;home_team_red_cards&#x9; &#xa;away_team_yellow_cards&#x9; &#xa;away_team_red_cards&#x9; &#xa;home_team_shots&#x9; &#xa;away_team_shots&#x9; &#xa;home_team_fouls&#x9; &#xa;away_team_fouls&#x9; &#xa;home_team_possession&#x9; &#xa;away_team_possession&#x9; &#xa;stadium_name" style="text;whiteSpace=wrap;html=1;" parent="1" vertex="1">
          <mxGeometry x="570" y="263" width="170" height="330" as="geometry" />
        </mxCell>
        <mxCell id="2Otsvk1H-WhSrmR9li6b-12" value="full_name &#xa;age &#xa;birthday &#xa;birthday_GMT &#xa;league &#xa;season &#xa;position &#xa;Current Club &#xa;minutes_played_overall &#xa;minutes_played_home &#xa;minutes_played_away &#xa;nationality &#xa;appearances_overall &#xa;goals_overall &#xa;assists_overall &#xa;penalty_goals &#xa;penalty_misses &#xa;yellow_cards_overall &#xa;red_cards_overall &#xa;assists_per_90_overall &#xa;passes_per_90_overall &#xa;shots_total_overall &#xa;blocks_total_overall" style="text;whiteSpace=wrap;html=1;" parent="1" vertex="1">
          <mxGeometry x="760" y="255" width="160" height="350" as="geometry" />
        </mxCell>
        <mxCell id="2Otsvk1H-WhSrmR9li6b-13" value="Referee" style="rounded=0;whiteSpace=wrap;html=1;" parent="1" vertex="1">
          <mxGeometry x="-590" y="140" width="120" height="60" as="geometry" />
        </mxCell>
        <mxCell id="2Otsvk1H-WhSrmR9li6b-14" value="Goleadores" style="rounded=0;whiteSpace=wrap;html=1;" parent="1" vertex="1">
          <mxGeometry x="-140" y="140" width="120" height="60" as="geometry" />
        </mxCell>
        <mxCell id="2Otsvk1H-WhSrmR9li6b-15" value="Tabla&amp;nbsp; Campeonato" style="rounded=0;whiteSpace=wrap;html=1;" parent="1" vertex="1">
          <mxGeometry x="-291" y="140" width="120" height="60" as="geometry" />
        </mxCell>
        <mxCell id="2Otsvk1H-WhSrmR9li6b-16" value="id_campeonato" style="ellipse;whiteSpace=wrap;html=1;" parent="1" vertex="1">
          <mxGeometry x="-300" y="220" width="120" height="40" as="geometry" />
        </mxCell>
        <mxCell id="2Otsvk1H-WhSrmR9li6b-17" value="ig_golead" style="ellipse;whiteSpace=wrap;html=1;" parent="1" vertex="1">
          <mxGeometry x="-140" y="217" width="120" height="46" as="geometry" />
        </mxCell>
        <mxCell id="2Otsvk1H-WhSrmR9li6b-18" value="Paises" style="rounded=0;whiteSpace=wrap;html=1;" parent="1" vertex="1">
          <mxGeometry x="-430" y="140" width="120" height="60" as="geometry" />
        </mxCell>
        <mxCell id="2Otsvk1H-WhSrmR9li6b-19" value="id_pais" style="ellipse;whiteSpace=wrap;html=1;" parent="1" vertex="1">
          <mxGeometry x="-430" y="215" width="120" height="40" as="geometry" />
        </mxCell>
        <mxCell id="2Otsvk1H-WhSrmR9li6b-20" value="id_referee" style="ellipse;whiteSpace=wrap;html=1;" parent="1" vertex="1">
          <mxGeometry x="-580" y="210" width="100" height="50" as="geometry" />
        </mxCell>
        <mxCell id="2Otsvk1H-WhSrmR9li6b-21" value="country" style="text;html=1;strokeColor=none;fillColor=none;align=center;verticalAlign=middle;whiteSpace=wrap;rounded=0;" parent="1" vertex="1">
          <mxGeometry x="-570" y="305" width="60" height="30" as="geometry" />
        </mxCell>
        <mxCell id="2Otsvk1H-WhSrmR9li6b-22" value="full_name" style="text;html=1;strokeColor=none;fillColor=none;align=center;verticalAlign=middle;whiteSpace=wrap;rounded=0;" parent="1" vertex="1">
          <mxGeometry x="-570" y="275" width="60" height="30" as="geometry" />
        </mxCell>
        <mxCell id="2Otsvk1H-WhSrmR9li6b-23" value="name" style="text;html=1;strokeColor=none;fillColor=none;align=center;verticalAlign=middle;whiteSpace=wrap;rounded=0;" parent="1" vertex="1">
          <mxGeometry x="-400" y="263" width="60" height="30" as="geometry" />
        </mxCell>
        <mxCell id="2Otsvk1H-WhSrmR9li6b-25" value="common_name" style="text;html=1;strokeColor=none;fillColor=none;align=center;verticalAlign=middle;whiteSpace=wrap;rounded=0;" parent="1" vertex="1">
          <mxGeometry x="-270" y="285" width="60" height="30" as="geometry" />
        </mxCell>
        <mxCell id="2Otsvk1H-WhSrmR9li6b-36" value="tot_goles" style="text;html=1;strokeColor=none;fillColor=none;align=center;verticalAlign=middle;whiteSpace=wrap;rounded=0;" parent="1" vertex="1">
          <mxGeometry x="-110" y="280" width="60" height="30" as="geometry" />
        </mxCell>
        <mxCell id="2Otsvk1H-WhSrmR9li6b-37" value="goles_penal" style="text;html=1;strokeColor=none;fillColor=none;align=center;verticalAlign=middle;whiteSpace=wrap;rounded=0;" parent="1" vertex="1">
          <mxGeometry x="-110" y="320" width="60" height="30" as="geometry" />
        </mxCell>
        <mxCell id="2Otsvk1H-WhSrmR9li6b-39" value="Asistidores" style="rounded=0;whiteSpace=wrap;html=1;" parent="1" vertex="1">
          <mxGeometry x="-750" y="140" width="120" height="60" as="geometry" />
        </mxCell>
        <mxCell id="2Otsvk1H-WhSrmR9li6b-40" value="id_assist" style="ellipse;whiteSpace=wrap;html=1;" parent="1" vertex="1">
          <mxGeometry x="-750" y="207.5" width="120" height="42.5" as="geometry" />
        </mxCell>
        <mxCell id="2Otsvk1H-WhSrmR9li6b-45" value="asistencias" style="text;html=1;strokeColor=none;fillColor=none;align=center;verticalAlign=middle;whiteSpace=wrap;rounded=0;" parent="1" vertex="1">
          <mxGeometry x="-720" y="263" width="60" height="30" as="geometry" />
        </mxCell>
        <mxCell id="2Otsvk1H-WhSrmR9li6b-48" value="Puente Jug_" style="rounded=0;whiteSpace=wrap;html=1;" parent="1" vertex="1">
          <mxGeometry x="-1060" y="140" width="120" height="60" as="geometry" />
        </mxCell>
        <mxCell id="2Otsvk1H-WhSrmR9li6b-49" value="country" style="text;html=1;strokeColor=none;fillColor=none;align=center;verticalAlign=middle;whiteSpace=wrap;rounded=0;" parent="1" vertex="1">
          <mxGeometry x="-280" y="310" width="60" height="30" as="geometry" />
        </mxCell>
        <mxCell id="2Otsvk1H-WhSrmR9li6b-51" value="puntos_tot" style="text;html=1;strokeColor=none;fillColor=none;align=center;verticalAlign=middle;whiteSpace=wrap;rounded=0;" parent="1" vertex="1">
          <mxGeometry x="-280" y="340" width="60" height="30" as="geometry" />
        </mxCell>
        <mxCell id="2Otsvk1H-WhSrmR9li6b-52" value="part_jugados" style="text;html=1;strokeColor=none;fillColor=none;align=center;verticalAlign=middle;whiteSpace=wrap;rounded=0;" parent="1" vertex="1">
          <mxGeometry x="-270" y="380" width="60" height="30" as="geometry" />
        </mxCell>
        <mxCell id="2Otsvk1H-WhSrmR9li6b-53" value="partid_ganados" style="text;html=1;strokeColor=none;fillColor=none;align=center;verticalAlign=middle;whiteSpace=wrap;rounded=0;" parent="1" vertex="1">
          <mxGeometry x="-270" y="410" width="60" height="30" as="geometry" />
        </mxCell>
        <mxCell id="2Otsvk1H-WhSrmR9li6b-54" value="partidos_empatados" style="text;html=1;strokeColor=none;fillColor=none;align=center;verticalAlign=middle;whiteSpace=wrap;rounded=0;" parent="1" vertex="1">
          <mxGeometry x="-261" y="450" width="60" height="30" as="geometry" />
        </mxCell>
        <mxCell id="2Otsvk1H-WhSrmR9li6b-55" value="partidos_perdidos" style="text;html=1;strokeColor=none;fillColor=none;align=center;verticalAlign=middle;whiteSpace=wrap;rounded=0;" parent="1" vertex="1">
          <mxGeometry x="-270" y="490" width="60" height="30" as="geometry" />
        </mxCell>
        <mxCell id="2Otsvk1H-WhSrmR9li6b-56" value="goles_a_favor" style="text;html=1;strokeColor=none;fillColor=none;align=center;verticalAlign=middle;whiteSpace=wrap;rounded=0;" parent="1" vertex="1">
          <mxGeometry x="-270" y="530" width="60" height="30" as="geometry" />
        </mxCell>
        <mxCell id="2Otsvk1H-WhSrmR9li6b-57" value="gole_en_comtra" style="text;html=1;strokeColor=none;fillColor=none;align=center;verticalAlign=middle;whiteSpace=wrap;rounded=0;" parent="1" vertex="1">
          <mxGeometry x="-270" y="560" width="60" height="30" as="geometry" />
        </mxCell>
        <mxCell id="2Otsvk1H-WhSrmR9li6b-62" value="Posicion jugador" style="rounded=0;whiteSpace=wrap;html=1;" parent="1" vertex="1">
          <mxGeometry x="-920" y="140" width="120" height="60" as="geometry" />
        </mxCell>
        <mxCell id="2Otsvk1H-WhSrmR9li6b-63" value="id_posicion" style="ellipse;whiteSpace=wrap;html=1;" parent="1" vertex="1">
          <mxGeometry x="-920" y="213" width="120" height="35" as="geometry" />
        </mxCell>
        <mxCell id="2Otsvk1H-WhSrmR9li6b-64" value="posicion_campo" style="text;html=1;strokeColor=none;fillColor=none;align=center;verticalAlign=middle;whiteSpace=wrap;rounded=0;" parent="1" vertex="1">
          <mxGeometry x="-890" y="257" width="60" height="30" as="geometry" />
        </mxCell>
        <mxCell id="2Otsvk1H-WhSrmR9li6b-66" value="id_puente_jug" style="ellipse;whiteSpace=wrap;html=1;" parent="1" vertex="1">
          <mxGeometry x="-1060" y="213" width="120" height="50" as="geometry" />
        </mxCell>
        <mxCell id="2Otsvk1H-WhSrmR9li6b-67" value="fk: id_posicion" style="rounded=1;whiteSpace=wrap;html=1;" parent="1" vertex="1">
          <mxGeometry x="-1060" y="287" width="120" height="36" as="geometry" />
        </mxCell>
        <mxCell id="2Otsvk1H-WhSrmR9li6b-68" value="fk:id_jugdor" style="rounded=1;whiteSpace=wrap;html=1;" parent="1" vertex="1">
          <mxGeometry x="-1060" y="340" width="120" height="40" as="geometry" />
        </mxCell>
        <mxCell id="sA7kF8VjEZqS9zTf4d9e-1" style="edgeStyle=orthogonalEdgeStyle;rounded=0;orthogonalLoop=1;jettySize=auto;html=1;exitX=0;exitY=0.25;exitDx=0;exitDy=0;" parent="1" source="Og9x-l5hCMV8rt3OVe_0-153" target="Og9x-l5hCMV8rt3OVe_0-153" edge="1">
          <mxGeometry relative="1" as="geometry" />
        </mxCell>
        <mxCell id="FC93by0MoQ3h0EQlpn40-1" value="Tabla Goleadores&amp;nbsp;" style="rounded=0;whiteSpace=wrap;html=1;" parent="1" vertex="1">
          <mxGeometry x="-1220" y="140" width="120" height="60" as="geometry" />
        </mxCell>
        <mxCell id="FC93by0MoQ3h0EQlpn40-2" value="id_tabla_gol" style="ellipse;whiteSpace=wrap;html=1;" parent="1" vertex="1">
          <mxGeometry x="-1220" y="210" width="120" height="35" as="geometry" />
        </mxCell>
        <mxCell id="FC93by0MoQ3h0EQlpn40-3" value="Tabla_asistidores" style="rounded=0;whiteSpace=wrap;html=1;" parent="1" vertex="1">
          <mxGeometry x="-1360" y="140" width="120" height="60" as="geometry" />
        </mxCell>
        <mxCell id="FC93by0MoQ3h0EQlpn40-4" value="id_tab_asist" style="ellipse;whiteSpace=wrap;html=1;" parent="1" vertex="1">
          <mxGeometry x="-1360" y="210" width="120" height="40" as="geometry" />
        </mxCell>
        <mxCell id="FC93by0MoQ3h0EQlpn40-5" value="full_name" style="text;html=1;strokeColor=none;fillColor=none;align=center;verticalAlign=middle;whiteSpace=wrap;rounded=0;" parent="1" vertex="1">
          <mxGeometry x="-1190" y="248" width="60" height="30" as="geometry" />
        </mxCell>
        <mxCell id="FC93by0MoQ3h0EQlpn40-6" value="full_name" style="text;html=1;strokeColor=none;fillColor=none;align=center;verticalAlign=middle;whiteSpace=wrap;rounded=0;" parent="1" vertex="1">
          <mxGeometry x="-1330" y="257" width="60" height="30" as="geometry" />
        </mxCell>
        <mxCell id="FC93by0MoQ3h0EQlpn40-7" value="cant_goles" style="text;html=1;strokeColor=none;fillColor=none;align=center;verticalAlign=middle;whiteSpace=wrap;rounded=0;" parent="1" vertex="1">
          <mxGeometry x="-1190" y="280" width="60" height="30" as="geometry" />
        </mxCell>
        <mxCell id="FC93by0MoQ3h0EQlpn40-8" value="cantidad_asistencias" style="text;html=1;strokeColor=none;fillColor=none;align=center;verticalAlign=middle;whiteSpace=wrap;rounded=0;" parent="1" vertex="1">
          <mxGeometry x="-1330" y="285" width="60" height="30" as="geometry" />
        </mxCell>
        <mxCell id="FC93by0MoQ3h0EQlpn40-9" value="country" style="text;html=1;strokeColor=none;fillColor=none;align=center;verticalAlign=middle;whiteSpace=wrap;rounded=0;" parent="1" vertex="1">
          <mxGeometry x="-1190" y="310" width="60" height="30" as="geometry" />
        </mxCell>
        <mxCell id="FC93by0MoQ3h0EQlpn40-10" value="country" style="text;html=1;strokeColor=none;fillColor=none;align=center;verticalAlign=middle;whiteSpace=wrap;rounded=0;" parent="1" vertex="1">
          <mxGeometry x="-1330" y="320" width="60" height="30" as="geometry" />
        </mxCell>
        <mxCell id="FC93by0MoQ3h0EQlpn40-11" value="equipo" style="text;html=1;strokeColor=none;fillColor=none;align=center;verticalAlign=middle;whiteSpace=wrap;rounded=0;" parent="1" vertex="1">
          <mxGeometry x="-1190" y="335" width="60" height="30" as="geometry" />
        </mxCell>
        <mxCell id="FC93by0MoQ3h0EQlpn40-12" value="equipo" style="text;html=1;strokeColor=none;fillColor=none;align=center;verticalAlign=middle;whiteSpace=wrap;rounded=0;" parent="1" vertex="1">
          <mxGeometry x="-1330" y="355" width="60" height="30" as="geometry" />
        </mxCell>
      </root>
    </mxGraphModel>
  </diagram>
</mxfile>
